# Blender 4.3.2
# www.blender.org
mtllib locker2.mtl
o Locker2
v 0.000000 2.134941 -0.183863
v 0.666259 1.466022 -0.189964
v 0.519204 1.442266 0.012058
v 0.665553 1.466267 0.166765
v 0.814557 1.491747 0.012058
v 0.449925 1.950156 -0.171457
v 0.343112 1.847428 0.002391
v 0.000000 1.968527 -0.000000
v 0.449796 1.949815 0.166674
v 0.000000 2.133333 0.183863
v 0.556889 2.052572 0.002391
v 0.000000 2.298140 0.000000
v 0.699356 0.802040 -0.195657
v 0.548495 0.802040 0.014960
v 0.698227 0.802040 0.171240
v 0.854064 0.802040 0.014960
v -0.666259 1.381621 -0.189964
v -0.519204 1.357866 0.012058
v -0.665553 1.381867 0.166765
v -0.814557 1.407347 0.012058
v -0.449925 1.950156 -0.171457
v -0.343112 1.847428 0.002391
v -0.449796 1.949815 0.166674
v -0.556889 2.052572 0.002391
v -0.699356 0.295637 -0.195657
v -0.548495 0.295637 0.014960
v -0.698227 0.295637 0.171240
v -0.854064 0.295637 0.014960
v 0.243724 2.085393 0.177062
v 0.588959 1.739094 0.164164
v 0.454694 1.681141 0.007186
v 0.243741 2.086542 -0.177660
v 0.592731 1.454144 -0.088953
v 0.589354 1.738968 -0.178423
v 0.592379 1.454267 0.089411
v 0.184588 1.940188 0.000299
v 0.740055 1.479007 0.089411
v 0.740407 1.478885 -0.088953
v 0.724526 1.798110 0.007186
v 0.302913 2.230645 0.000299
v 0.000000 2.216540 -0.091932
v 0.503407 2.001364 -0.084533
v 0.000000 2.215736 0.091931
v 0.503342 2.001194 0.084533
v 0.000000 2.050930 0.091931
v 0.396454 1.898622 0.084533
v 0.000000 2.051734 -0.091932
v 0.396518 1.898792 -0.084533
v 0.623926 0.802040 -0.090348
v 0.623361 0.802040 0.093100
v 0.776145 0.802040 0.093100
v 0.776710 0.802040 -0.090348
v 0.544354 1.139438 0.014368
v 0.694348 1.146387 0.169306
v 0.695291 1.146219 -0.195175
v 0.848646 1.154354 0.014368
v -0.243724 2.085393 0.177062
v -0.588959 1.728544 0.164164
v -0.454694 1.670591 0.007186
v -0.243741 2.086542 -0.177660
v -0.592731 1.369744 -0.088953
v -0.589354 1.728418 -0.178423
v -0.592379 1.369866 0.089411
v -0.184588 1.940188 0.000299
v -0.740055 1.394607 0.089411
v -0.740407 1.394484 -0.088953
v -0.724526 1.787560 0.007186
v -0.302913 2.230645 0.000299
v -0.503407 2.001364 -0.084533
v -0.503342 2.001194 0.084533
v -0.396454 1.898622 0.084533
v -0.396518 1.898792 -0.084533
v -0.623926 0.295637 -0.090348
v -0.623361 0.295637 0.093100
v -0.776145 0.295637 0.093100
v -0.776710 0.295637 -0.090348
v -0.544354 0.875686 0.014368
v -0.694348 0.882636 0.169306
v -0.695291 0.882467 -0.195175
v -0.848646 0.890602 0.014368
v 0.273319 2.158019 0.088680
v 0.273327 2.158593 -0.088681
v 0.522024 1.710055 -0.085618
v 0.521826 1.710118 0.085675
v 0.619351 1.142913 0.091837
v 0.656742 1.768602 0.085675
v 0.656940 1.768539 -0.085618
v 0.214156 2.012791 0.088680
v 0.214164 2.013365 -0.088681
v 0.700035 0.802040 0.001376
v 0.619823 1.142829 -0.090404
v 0.771968 1.150286 -0.090404
v 0.771497 1.150371 0.091837
v -0.273318 2.158020 0.088680
v -0.273327 2.158593 -0.088681
v -0.522024 1.699505 -0.085618
v -0.521826 1.699567 0.085675
v -0.619351 0.879161 0.091837
v -0.656742 1.758052 0.085675
v -0.656940 1.757989 -0.085618
v -0.214156 2.012791 0.088680
v -0.214164 2.013365 -0.088681
v -0.700035 0.295637 0.001376
v -0.619823 0.879077 -0.090404
v -0.771968 0.886535 -0.090404
v -0.771497 0.886619 0.091837
vn -0.0000 0.0929 -0.9957
vn 0.0385 0.0298 -0.9988
vn -0.9832 -0.1701 0.0655
vn 0.0342 0.0193 0.9992
vn 0.9794 0.1922 0.0624
vn 0.0763 0.0668 -0.9948
vn -0.6866 -0.7269 0.0160
vn -0.0000 -1.0000 -0.0021
vn 0.0815 0.0544 0.9952
vn -0.0000 0.0875 0.9962
vn 0.7170 0.6969 0.0156
vn -0.0000 1.0000 0.0023
vn 0.0010 -0.5619 -0.8272
vn -0.8035 -0.5924 0.0587
vn -0.0029 -0.5739 0.8189
vn 0.8123 -0.5800 0.0616
vn -0.0347 0.0211 -0.9992
vn 0.9900 -0.1254 0.0647
vn -0.0298 0.0130 0.9995
vn -0.9868 0.1495 0.0625
vn -0.0812 0.0693 -0.9943
vn 0.6969 -0.7170 0.0163
vn -0.0859 0.0569 0.9947
vn -0.7232 0.6905 0.0156
vn 0.0011 -0.5621 -0.8270
vn 0.8048 -0.5907 0.0584
vn 0.0046 -0.5746 0.8184
vn -0.8106 -0.5823 0.0614
vn 0.0655 0.0706 0.9954
vn 0.0607 0.0354 0.9975
vn -0.9105 -0.4112 0.0439
vn 0.0633 0.0769 -0.9950
vn -0.7903 -0.1365 -0.5974
vn 0.0591 0.0529 -0.9969
vn -0.7136 -0.1210 0.6900
vn -0.3384 -0.9410 0.0008
vn 0.7026 0.1411 0.6974
vn 0.7837 0.1535 -0.6019
vn 0.9062 0.4210 0.0393
vn 0.4016 0.9158 0.0043
vn -0.0000 0.7486 -0.6630
vn 0.5489 0.5329 -0.6440
vn -0.0000 0.7447 0.6674
vn 0.5293 0.5181 0.6719
vn -0.0000 -0.7482 0.6634
vn -0.5118 -0.5343 0.6727
vn -0.0000 -0.7464 -0.6655
vn -0.5300 -0.5480 -0.6472
vn -0.5714 -0.7106 -0.4106
vn -0.5078 -0.7092 0.4891
vn 0.5038 -0.7028 0.5022
vn 0.5733 -0.7032 -0.4205
vn -0.9963 -0.0464 0.0723
vn 0.0101 0.0081 0.9999
vn 0.0156 0.0082 -0.9998
vn 0.9956 0.0579 0.0731
vn -0.0655 0.0706 0.9954
vn -0.0700 0.0330 0.9970
vn 0.9281 -0.3696 0.0449
vn -0.0633 0.0769 -0.9950
vn 0.7963 -0.1024 -0.5962
vn -0.0704 0.0490 -0.9963
vn 0.7191 -0.0910 0.6889
vn 0.3384 -0.9410 0.0008
vn -0.7092 0.1082 0.6967
vn -0.7905 0.1177 -0.6010
vn -0.9203 0.3892 0.0395
vn -0.4016 0.9158 0.0043
vn -0.5539 0.5269 -0.6447
vn -0.5340 0.5123 0.6726
vn 0.5177 -0.5274 0.6737
vn 0.5363 -0.5407 -0.6482
vn 0.5726 -0.7091 -0.4114
vn 0.5084 -0.7083 0.4897
vn -0.5026 -0.7046 0.5010
vn -0.5720 -0.7048 -0.4195
vn 0.9970 -0.0289 0.0715
vn -0.0041 0.0048 1.0000
vn -0.0089 0.0050 -0.9999
vn -0.9966 0.0375 0.0732
vn 0.3007 0.6829 0.6658
vn 0.3050 0.6894 -0.6570
vn -0.7161 -0.3193 -0.6206
vn -0.6679 -0.2989 0.6816
vn -0.7196 -0.0314 0.6937
vn 0.6589 0.3111 0.6849
vn 0.7096 0.3303 -0.6223
vn -0.2583 -0.7010 0.6647
vn -0.2615 -0.7035 -0.6609
vn -0.0000 -1.0000 -0.0000
vn -0.8093 -0.0386 -0.5862
vn 0.8041 0.0452 -0.5928
vn 0.7087 0.0425 0.7043
vn -0.3007 0.6829 0.6658
vn -0.3050 0.6894 -0.6570
vn 0.7282 -0.2897 -0.6211
vn 0.6791 -0.2719 0.6819
vn 0.7203 -0.0198 0.6934
vn -0.6697 0.2853 0.6857
vn -0.7213 0.3025 -0.6231
vn 0.2583 -0.7010 0.6647
vn 0.2615 -0.7035 -0.6609
vn 0.8101 -0.0243 -0.5858
vn -0.8051 0.0290 -0.5924
vn -0.7098 0.0272 0.7039
vt 0.500000 0.750000
vt 0.500000 0.812500
vt 0.375000 0.812500
vt 0.375000 0.750000
vt 0.500000 0.875000
vt 0.375000 0.875000
vt 0.250000 0.875000
vt 0.250000 0.812500
vt 0.250000 0.750000
vt 0.250000 0.812500
vt 0.125000 0.812500
vt 0.125000 0.750000
vt 0.125000 0.875000
vt 0.000000 0.875000
vt 0.000000 0.812500
vt 0.000000 0.750000
vt 1.000000 0.875000
vt 1.000000 0.937500
vt 0.875000 0.935330
vt 0.875000 0.875000
vt 1.000000 1.000000
vt 0.875000 0.980903
vt 0.750000 0.979167
vt 0.750000 0.934896
vt 0.750000 0.875000
vt 0.750000 0.934896
vt 0.625000 0.934896
vt 0.625000 0.875000
vt 0.750000 0.979167
vt 0.625000 0.979167
vt 0.500000 0.979167
vt 0.500000 0.934896
vt 0.625000 0.979167
vt 0.625000 0.997396
vt 0.500000 0.997396
vt 0.750000 0.997396
vt 0.750000 1.000000
vt 0.625000 1.000000
vt 0.500000 1.000000
vt 0.375000 0.934896
vt 0.375000 0.979167
vt 0.250000 0.979167
vt 0.250000 0.934896
vt 0.250000 0.934896
vt 0.125000 0.935330
vt 0.250000 0.979167
vt 0.125000 0.980903
vt 0.000000 1.000000
vt 0.000000 0.937500
vt 0.750000 0.750000
vt 0.750000 0.812500
vt 0.625000 0.812500
vt 0.625000 0.750000
vt 1.000000 0.750000
vt 1.000000 0.812500
vt 0.875000 0.812500
vt 0.875000 0.750000
vt 0.750000 0.812500
vt 0.490000 0.250000
vt 0.370000 0.370000
vt 0.250000 0.250000
vt 0.370000 0.130000
vt 0.250000 0.490000
vt 0.130000 0.370000
vt 0.010000 0.250000
vt 0.130000 0.130000
vt 0.250000 0.010000
vt 0.875000 0.980903
vt 0.875000 0.997830
vt 0.750000 0.997396
vt 1.000000 1.000000
vt 0.875000 1.000000
vt 0.125000 0.980903
vt 0.125000 0.997830
vt 0.000000 1.000000
vt 0.250000 0.997396
vt 0.250000 1.000000
vt 0.125000 1.000000
vt 0.375000 0.979167
vt 0.375000 0.997396
vt 0.250000 0.997396
vt 0.375000 1.000000
vt 0.375000 0.812500
vt 0.375000 0.875000
vt 0.875000 0.875000
vt 0.875000 0.937500
vt 1.000000 0.937500
vt 0.750000 0.937500
vt 0.625000 0.937500
vt 0.500000 0.937500
vt 0.625000 1.000000
vt 0.375000 0.937500
vt 0.250000 0.937500
vt 0.125000 0.937500
vt 0.000000 0.937500
vt 0.625000 0.812500
vt 0.875000 0.812500
vt 0.875000 1.000000
vt 0.125000 1.000000
vt 0.375000 1.000000
s 1
f 10/1/10 29/2/29 81/3/81 43/4/43
f 29/2/29 9/5/9 44/6/44 81/3/81
f 81/3/81 44/6/44 11/7/11 40/8/40
f 43/4/43 81/3/81 40/8/40 12/9/12
f 12/9/12 40/10/40 82/11/82 41/12/41
f 40/10/40 11/7/11 42/13/42 82/11/82
f 82/11/82 42/13/42 6/14/6 32/15/32
f 41/12/41 82/11/82 32/15/32 1/16/1
f 6/17/6 34/18/34 83/19/83 48/20/48
f 34/18/34 2/21/2 33/22/33 83/19/83
f 83/19/83 33/22/33 3/23/3 31/24/31
f 48/20/48 83/19/83 31/24/31 7/25/7
f 7/25/7 31/26/31 84/27/84 46/28/46
f 31/26/31 3/29/3 35/30/35 84/27/84
f 84/27/84 35/30/35 4/31/4 30/32/30
f 46/28/46 84/27/84 30/32/30 9/5/9
f 4/31/4 35/33/35 85/34/85 54/35/54
f 35/33/35 3/29/3 53/36/53 85/34/85
f 85/34/85 53/36/53 14/37/14 50/38/50
f 54/35/54 85/34/85 50/38/50 15/39/15
f 9/5/9 30/32/30 86/40/86 44/6/44
f 30/32/30 4/31/4 37/41/37 86/40/86
f 86/40/86 37/41/37 5/42/5 39/43/39
f 44/6/44 86/40/86 39/43/39 11/7/11
f 11/7/11 39/44/39 87/45/87 42/13/42
f 39/44/39 5/46/5 38/47/38 87/45/87
f 87/45/87 38/47/38 2/48/2 34/49/34
f 42/13/42 87/45/87 34/49/34 6/14/6
f 8/50/8 36/51/36 88/52/88 45/53/45
f 36/51/36 7/25/7 46/28/46 88/52/88
f 88/52/88 46/28/46 9/5/9 29/2/29
f 45/53/45 88/52/88 29/2/29 10/1/10
f 1/54/1 32/55/32 89/56/89 47/57/47
f 32/55/32 6/17/6 48/20/48 89/56/89
f 89/56/89 48/20/48 7/25/7 36/58/36
f 47/57/47 89/56/89 36/58/36 8/50/8
f 14/59/14 49/60/49 90/61/90 50/62/50
f 49/60/49 13/63/13 52/64/52 90/61/90
f 90/61/90 52/64/52 16/65/16 51/66/51
f 50/62/50 90/61/90 51/66/51 15/67/15
f 3/23/3 33/68/33 91/69/91 53/70/53
f 33/68/33 2/21/2 55/71/55 91/69/91
f 91/69/91 55/71/55 13/71/13 49/72/49
f 53/70/53 91/69/91 49/72/49 14/37/14
f 2/48/2 38/73/38 92/74/92 55/75/55
f 38/73/38 5/46/5 56/76/56 92/74/92
f 92/74/92 56/76/56 16/77/16 52/78/52
f 55/75/55 92/74/92 52/78/52 13/75/13
f 5/42/5 37/79/37 93/80/93 56/81/56
f 37/79/37 4/31/4 54/35/54 93/80/93
f 93/80/93 54/35/54 15/39/15 51/82/51
f 56/81/56 93/80/93 51/82/51 16/77/16
f 10/1/10 43/4/43 94/83/94 57/2/57
f 43/4/43 12/9/12 68/8/68 94/83/94
f 94/83/94 68/8/68 24/7/24 70/84/70
f 57/2/57 94/83/94 70/84/70 23/5/23
f 12/9/12 41/12/41 95/11/95 68/10/68
f 41/12/41 1/16/1 60/15/60 95/11/95
f 95/11/95 60/15/60 21/14/21 69/13/69
f 68/10/68 95/11/95 69/13/69 24/7/24
f 21/17/21 72/85/72 96/86/96 62/87/62
f 72/85/72 22/25/22 59/88/59 96/86/96
f 96/86/96 59/88/59 18/37/18 61/72/61
f 62/87/62 96/86/96 61/72/61 17/71/17
f 22/25/22 71/28/71 97/89/97 59/88/59
f 71/28/71 23/5/23 58/90/58 97/89/97
f 97/89/97 58/90/58 19/39/19 63/38/63
f 59/88/59 97/89/97 63/38/63 18/37/18
f 19/39/19 78/39/78 98/91/98 63/38/63
f 78/39/78 27/39/27 74/38/74 98/91/98
f 98/91/98 74/38/74 26/37/26 77/37/77
f 63/38/63 98/91/98 77/37/77 18/37/18
f 23/5/23 70/84/70 99/92/99 58/90/58
f 70/84/70 24/7/24 67/93/67 99/92/99
f 99/92/99 67/93/67 20/77/20 65/82/65
f 58/90/58 99/92/99 65/82/65 19/39/19
f 24/7/24 69/13/69 100/94/100 67/93/67
f 69/13/69 21/14/21 62/95/62 100/94/100
f 100/94/100 62/95/62 17/75/17 66/78/66
f 67/93/67 100/94/100 66/78/66 20/77/20
f 8/50/8 45/53/45 101/96/101 64/51/64
f 45/53/45 10/1/10 57/2/57 101/96/101
f 101/96/101 57/2/57 23/5/23 71/28/71
f 64/51/64 101/96/101 71/28/71 22/25/22
f 1/54/1 47/57/47 102/97/102 60/55/60
f 47/57/47 8/50/8 64/58/64 102/97/102
f 102/97/102 64/58/64 22/25/22 72/85/72
f 60/55/60 102/97/102 72/85/72 21/17/21
f 26/59/26 74/62/74 103/61/90 73/60/73
f 74/62/74 27/67/27 75/66/75 103/61/90
f 103/61/90 75/66/75 28/65/28 76/64/76
f 73/60/73 103/61/90 76/64/76 25/63/25
f 18/37/18 77/37/77 104/98/103 61/98/61
f 77/37/77 26/37/26 73/98/73 104/98/103
f 104/98/103 73/98/73 25/71/25 79/71/79
f 61/98/61 104/98/103 79/71/79 17/71/17
f 17/75/17 79/75/79 105/99/104 66/78/66
f 79/75/79 25/75/25 76/78/76 105/99/104
f 105/99/104 76/78/76 28/77/28 80/77/80
f 66/78/66 105/99/104 80/77/80 20/77/20
f 20/77/20 80/77/80 106/100/105 65/82/65
f 80/77/80 28/77/28 75/82/75 106/100/105
f 106/100/105 75/82/75 27/39/27 78/39/78
f 65/82/65 106/100/105 78/39/78 19/39/19
